<mxfile host="app.diagrams.net" agent="Mozilla/5.0 (Windows NT 10.0; Win64; x64) AppleWebKit/537.36 (KHTML, like Gecko) Chrome/138.0.0.0 Safari/537.36" version="28.0.7">
  <diagram name="PÃ¡gina-1" id="j4SLe0pqrd544xetbmJd">
    <mxGraphModel dx="1277" dy="620" grid="1" gridSize="10" guides="1" tooltips="1" connect="1" arrows="1" fold="1" page="1" pageScale="1" pageWidth="827" pageHeight="583" math="0" shadow="0">
      <root>
        <mxCell id="0" />
        <mxCell id="1" parent="0" />
        <mxCell id="S2QrxNCUd-B4CDodrf9g-1" value="" style="rounded=0;whiteSpace=wrap;html=1;fillColor=#D9CEAE;strokeColor=none;glass=0;" vertex="1" parent="1">
          <mxGeometry x="200" y="440" width="400" height="39" as="geometry" />
        </mxCell>
        <mxCell id="S2QrxNCUd-B4CDodrf9g-30" value="" style="rounded=0;whiteSpace=wrap;html=1;fillColor=#bac8d3;strokeColor=#23445d;rotation=90;" vertex="1" parent="1">
          <mxGeometry x="394.75" y="414.75" width="10" height="89.5" as="geometry" />
        </mxCell>
        <mxCell id="S2QrxNCUd-B4CDodrf9g-9" value="" style="rounded=0;whiteSpace=wrap;html=1;fillColor=#D9CEAE;strokeWidth=1;strokeColor=none;" vertex="1" parent="1">
          <mxGeometry x="200" y="401" width="40" height="40" as="geometry" />
        </mxCell>
        <mxCell id="S2QrxNCUd-B4CDodrf9g-4" value="" style="ellipse;whiteSpace=wrap;html=1;aspect=fixed;fillColor=#f5f5f5;fontColor=#333333;strokeColor=#666666;" vertex="1" parent="1">
          <mxGeometry x="210" y="411" width="19.5" height="19.5" as="geometry" />
        </mxCell>
        <mxCell id="S2QrxNCUd-B4CDodrf9g-12" value="" style="rounded=0;whiteSpace=wrap;html=1;fillColor=#D9CEAE;strokeColor=none;strokeWidth=0;" vertex="1" parent="1">
          <mxGeometry x="560" y="400.75" width="40" height="40" as="geometry" />
        </mxCell>
        <mxCell id="S2QrxNCUd-B4CDodrf9g-13" value="" style="ellipse;whiteSpace=wrap;html=1;aspect=fixed;fillColor=#f5f5f5;fontColor=#333333;strokeColor=#666666;" vertex="1" parent="1">
          <mxGeometry x="570" y="410.75" width="19.5" height="19.5" as="geometry" />
        </mxCell>
        <mxCell id="S2QrxNCUd-B4CDodrf9g-17" style="rounded=0;orthogonalLoop=1;jettySize=auto;html=1;exitX=0;exitY=0.5;exitDx=0;exitDy=0;entryX=1;entryY=0.5;entryDx=0;entryDy=0;endArrow=none;endFill=0;" edge="1" parent="1" target="S2QrxNCUd-B4CDodrf9g-9">
          <mxGeometry relative="1" as="geometry">
            <mxPoint x="250" y="420.81818181818187" as="targetPoint" />
            <mxPoint x="340" y="420.75" as="sourcePoint" />
          </mxGeometry>
        </mxCell>
        <mxCell id="S2QrxNCUd-B4CDodrf9g-16" value="" style="rounded=0;whiteSpace=wrap;html=1;fillColor=#bac8d3;strokeColor=#23445d;" vertex="1" parent="1">
          <mxGeometry x="350" y="401" width="10" height="60" as="geometry" />
        </mxCell>
        <mxCell id="S2QrxNCUd-B4CDodrf9g-19" value="" style="rounded=0;whiteSpace=wrap;html=1;fillColor=#bac8d3;strokeColor=#23445d;" vertex="1" parent="1">
          <mxGeometry x="440" y="401" width="10" height="60" as="geometry" />
        </mxCell>
        <mxCell id="S2QrxNCUd-B4CDodrf9g-20" style="edgeStyle=none;rounded=0;orthogonalLoop=1;jettySize=auto;html=1;exitX=1;exitY=0.5;exitDx=0;exitDy=0;entryX=0;entryY=0.5;entryDx=0;entryDy=0;endArrow=none;endFill=0;" edge="1" parent="1" source="S2QrxNCUd-B4CDodrf9g-18" target="S2QrxNCUd-B4CDodrf9g-12">
          <mxGeometry relative="1" as="geometry">
            <mxPoint x="540" y="420.2222222222222" as="targetPoint" />
          </mxGeometry>
        </mxCell>
        <mxCell id="S2QrxNCUd-B4CDodrf9g-18" value="" style="rounded=0;whiteSpace=wrap;html=1;fillColor=#f5f5f5;gradientColor=#b3b3b3;strokeColor=#666666;" vertex="1" parent="1">
          <mxGeometry x="340" y="415" width="120" height="10" as="geometry" />
        </mxCell>
        <mxCell id="S2QrxNCUd-B4CDodrf9g-23" value="" style="ellipse;whiteSpace=wrap;html=1;fillColor=#647687;fontColor=#ffffff;strokeColor=#314354;" vertex="1" parent="1">
          <mxGeometry x="435" y="454.5" width="20" height="10" as="geometry" />
        </mxCell>
        <mxCell id="S2QrxNCUd-B4CDodrf9g-22" value="" style="ellipse;whiteSpace=wrap;html=1;fillColor=#647687;fontColor=#ffffff;strokeColor=#314354;" vertex="1" parent="1">
          <mxGeometry x="345" y="454.5" width="20" height="10" as="geometry" />
        </mxCell>
        <mxCell id="S2QrxNCUd-B4CDodrf9g-26" value="" style="endArrow=none;html=1;rounded=0;entryX=0.043;entryY=1.002;entryDx=0;entryDy=0;entryPerimeter=0;" edge="1" parent="1">
          <mxGeometry width="50" height="50" relative="1" as="geometry">
            <mxPoint x="520" y="529" as="sourcePoint" />
            <mxPoint x="539" y="479" as="targetPoint" />
          </mxGeometry>
        </mxCell>
        <mxCell id="S2QrxNCUd-B4CDodrf9g-27" value="" style="endArrow=none;html=1;rounded=0;flowAnimation=0;" edge="1" parent="1">
          <mxGeometry width="50" height="50" relative="1" as="geometry">
            <mxPoint x="589.75" y="529" as="sourcePoint" />
            <mxPoint x="570.25" y="479" as="targetPoint" />
          </mxGeometry>
        </mxCell>
        <mxCell id="S2QrxNCUd-B4CDodrf9g-28" value="" style="ellipse;whiteSpace=wrap;html=1;aspect=fixed;" vertex="1" parent="1">
          <mxGeometry x="214.88" y="415.88" width="9.75" height="9.75" as="geometry" />
        </mxCell>
        <mxCell id="S2QrxNCUd-B4CDodrf9g-29" value="" style="ellipse;whiteSpace=wrap;html=1;aspect=fixed;" vertex="1" parent="1">
          <mxGeometry x="574.87" y="415.62" width="9.75" height="9.75" as="geometry" />
        </mxCell>
        <mxCell id="S2QrxNCUd-B4CDodrf9g-31" value="" style="whiteSpace=wrap;html=1;aspect=fixed;rounded=1;fillColor=#b1ddf0;strokeColor=#10739e;" vertex="1" parent="1">
          <mxGeometry x="337.63" y="366.25" width="34.75" height="34.75" as="geometry" />
        </mxCell>
        <mxCell id="S2QrxNCUd-B4CDodrf9g-33" value="" style="ellipse;whiteSpace=wrap;html=1;aspect=fixed;fillColor=none;" vertex="1" parent="1">
          <mxGeometry x="345" y="373.63" width="20" height="20" as="geometry" />
        </mxCell>
        <mxCell id="S2QrxNCUd-B4CDodrf9g-35" value="" style="ellipse;whiteSpace=wrap;html=1;aspect=fixed;fillColor=light-dark(#000000,#000000);" vertex="1" parent="1">
          <mxGeometry x="350.01" y="378.63" width="10" height="10" as="geometry" />
        </mxCell>
        <mxCell id="S2QrxNCUd-B4CDodrf9g-37" value="" style="ellipse;whiteSpace=wrap;html=1;aspect=fixed;fillColor=light-dark(#000000,#000000);" vertex="1" parent="1">
          <mxGeometry x="343.63" y="372.26" width="1.37" height="1.37" as="geometry" />
        </mxCell>
        <mxCell id="S2QrxNCUd-B4CDodrf9g-38" value="" style="ellipse;whiteSpace=wrap;html=1;aspect=fixed;fillColor=light-dark(#000000,#000000);" vertex="1" parent="1">
          <mxGeometry x="365" y="372.26" width="1.37" height="1.37" as="geometry" />
        </mxCell>
        <mxCell id="S2QrxNCUd-B4CDodrf9g-46" value="" style="rounded=0;whiteSpace=wrap;html=1;fillColor=#eeeeee;strokeColor=#36393d;" vertex="1" parent="1">
          <mxGeometry x="370" y="405" width="10" height="5" as="geometry" />
        </mxCell>
        <mxCell id="S2QrxNCUd-B4CDodrf9g-39" value="" style="whiteSpace=wrap;html=1;aspect=fixed;rounded=1;fillColor=#b1ddf0;strokeColor=#10739e;" vertex="1" parent="1">
          <mxGeometry x="427.63" y="366.25" width="34.75" height="34.75" as="geometry" />
        </mxCell>
        <mxCell id="S2QrxNCUd-B4CDodrf9g-40" value="" style="ellipse;whiteSpace=wrap;html=1;aspect=fixed;fillColor=none;" vertex="1" parent="1">
          <mxGeometry x="435" y="373.63" width="20" height="20" as="geometry" />
        </mxCell>
        <mxCell id="S2QrxNCUd-B4CDodrf9g-41" value="" style="ellipse;whiteSpace=wrap;html=1;aspect=fixed;fillColor=light-dark(#000000,#000000);" vertex="1" parent="1">
          <mxGeometry x="440.01" y="378.63" width="10" height="10" as="geometry" />
        </mxCell>
        <mxCell id="S2QrxNCUd-B4CDodrf9g-42" value="" style="ellipse;whiteSpace=wrap;html=1;aspect=fixed;fillColor=light-dark(#000000,#000000);" vertex="1" parent="1">
          <mxGeometry x="433.63" y="372.26" width="1.37" height="1.37" as="geometry" />
        </mxCell>
        <mxCell id="S2QrxNCUd-B4CDodrf9g-47" value="" style="rounded=0;whiteSpace=wrap;html=1;fillColor=light-dark(#000000,#000000);strokeColor=light-dark(#000000,#000000);" vertex="1" parent="1">
          <mxGeometry x="385.75" y="408" width="10" height="5" as="geometry" />
        </mxCell>
        <mxCell id="S2QrxNCUd-B4CDodrf9g-48" value="" style="rounded=0;whiteSpace=wrap;html=1;fillColor=light-dark(#000000,#000000);strokeColor=light-dark(#000000,#000000);" vertex="1" parent="1">
          <mxGeometry x="406" y="409" width="10" height="5" as="geometry" />
        </mxCell>
        <mxCell id="S2QrxNCUd-B4CDodrf9g-43" value="" style="ellipse;whiteSpace=wrap;html=1;aspect=fixed;fillColor=light-dark(#000000,#000000);" vertex="1" parent="1">
          <mxGeometry x="455" y="372.26" width="1.37" height="1.37" as="geometry" />
        </mxCell>
        <mxCell id="S2QrxNCUd-B4CDodrf9g-53" style="edgeStyle=orthogonalEdgeStyle;rounded=0;orthogonalLoop=1;jettySize=auto;html=1;exitX=1;exitY=0.5;exitDx=0;exitDy=0;dashed=1;strokeWidth=4;strokeColor=#FFFF66;entryX=0.5;entryY=0;entryDx=0;entryDy=0;" edge="1" parent="1" source="S2QrxNCUd-B4CDodrf9g-44" target="S2QrxNCUd-B4CDodrf9g-68">
          <mxGeometry relative="1" as="geometry">
            <mxPoint x="550" y="340" as="targetPoint" />
          </mxGeometry>
        </mxCell>
        <mxCell id="S2QrxNCUd-B4CDodrf9g-70" value="HTTP" style="edgeLabel;html=1;align=center;verticalAlign=middle;resizable=0;points=[];" vertex="1" connectable="0" parent="S2QrxNCUd-B4CDodrf9g-53">
          <mxGeometry x="0.3958" relative="1" as="geometry">
            <mxPoint as="offset" />
          </mxGeometry>
        </mxCell>
        <mxCell id="S2QrxNCUd-B4CDodrf9g-54" style="edgeStyle=orthogonalEdgeStyle;rounded=0;orthogonalLoop=1;jettySize=auto;html=1;exitX=0;exitY=0.5;exitDx=0;exitDy=0;dashed=1;strokeWidth=4;strokeColor=#FFFF66;entryX=0.5;entryY=0;entryDx=0;entryDy=0;" edge="1" parent="1" source="S2QrxNCUd-B4CDodrf9g-44" target="S2QrxNCUd-B4CDodrf9g-55">
          <mxGeometry relative="1" as="geometry">
            <mxPoint x="270" y="340" as="targetPoint" />
          </mxGeometry>
        </mxCell>
        <mxCell id="S2QrxNCUd-B4CDodrf9g-69" value="HTTP" style="edgeLabel;html=1;align=center;verticalAlign=middle;resizable=0;points=[];" vertex="1" connectable="0" parent="S2QrxNCUd-B4CDodrf9g-54">
          <mxGeometry x="0.4037" y="1" relative="1" as="geometry">
            <mxPoint as="offset" />
          </mxGeometry>
        </mxCell>
        <mxCell id="S2QrxNCUd-B4CDodrf9g-44" value="" style="rounded=0;whiteSpace=wrap;html=1;fillColor=#cdeb8b;strokeColor=#36393d;" vertex="1" parent="1">
          <mxGeometry x="370" y="409.75" width="60" height="5" as="geometry" />
        </mxCell>
        <mxCell id="S2QrxNCUd-B4CDodrf9g-51" value="" style="endArrow=none;html=1;rounded=0;entryX=0.043;entryY=1.002;entryDx=0;entryDy=0;entryPerimeter=0;" edge="1" parent="1">
          <mxGeometry width="50" height="50" relative="1" as="geometry">
            <mxPoint x="210.5" y="529" as="sourcePoint" />
            <mxPoint x="229.5" y="479" as="targetPoint" />
          </mxGeometry>
        </mxCell>
        <mxCell id="S2QrxNCUd-B4CDodrf9g-52" value="" style="endArrow=none;html=1;rounded=0;flowAnimation=0;" edge="1" parent="1">
          <mxGeometry width="50" height="50" relative="1" as="geometry">
            <mxPoint x="279.5" y="529" as="sourcePoint" />
            <mxPoint x="260" y="479" as="targetPoint" />
          </mxGeometry>
        </mxCell>
        <mxCell id="S2QrxNCUd-B4CDodrf9g-60" value="" style="rounded=0;whiteSpace=wrap;html=1;fillColor=light-dark(#000000,#000000);strokeColor=light-dark(#000000,#000000);" vertex="1" parent="1">
          <mxGeometry x="217.63" y="394.63" width="20.37" height="5" as="geometry" />
        </mxCell>
        <mxCell id="S2QrxNCUd-B4CDodrf9g-55" value="&lt;font style=&quot;font-size: 7px;&quot;&gt;ESP32&lt;/font&gt;&lt;div&gt;&lt;font style=&quot;font-size: 7px;&quot;&gt;STEPMOTOR&lt;/font&gt;&lt;/div&gt;" style="text;html=1;align=center;verticalAlign=middle;whiteSpace=wrap;rounded=0;" vertex="1" parent="1">
          <mxGeometry x="190" y="363.63" width="60" height="30" as="geometry" />
        </mxCell>
        <mxCell id="S2QrxNCUd-B4CDodrf9g-61" value="" style="rounded=0;whiteSpace=wrap;html=1;fillColor=#eeeeee;strokeColor=#36393d;" vertex="1" parent="1">
          <mxGeometry x="202.63" y="393.63" width="17.37" height="5" as="geometry" />
        </mxCell>
        <mxCell id="S2QrxNCUd-B4CDodrf9g-58" value="" style="rounded=0;whiteSpace=wrap;html=1;fillColor=#cce5ff;strokeColor=#36393d;" vertex="1" parent="1">
          <mxGeometry x="200" y="396" width="40" height="5" as="geometry" />
        </mxCell>
        <mxCell id="S2QrxNCUd-B4CDodrf9g-62" value="" style="rounded=0;whiteSpace=wrap;html=1;fillColor=#eeeeee;strokeColor=#36393d;" vertex="1" parent="1">
          <mxGeometry x="233" y="395" width="10" height="1" as="geometry" />
        </mxCell>
        <mxCell id="S2QrxNCUd-B4CDodrf9g-67" value="" style="group;flipV=0;flipH=1;" vertex="1" connectable="0" parent="1">
          <mxGeometry x="557" y="393.63" width="43" height="7.3700000000000045" as="geometry" />
        </mxCell>
        <mxCell id="S2QrxNCUd-B4CDodrf9g-63" value="" style="rounded=0;whiteSpace=wrap;html=1;fillColor=light-dark(#000000,#000000);strokeColor=light-dark(#000000,#000000);flipV=1;flipH=0;" vertex="1" parent="S2QrxNCUd-B4CDodrf9g-67">
          <mxGeometry x="5.0000000000000036" y="1" width="20.37" height="5" as="geometry" />
        </mxCell>
        <mxCell id="S2QrxNCUd-B4CDodrf9g-64" value="" style="rounded=0;whiteSpace=wrap;html=1;fillColor=#eeeeee;strokeColor=#36393d;flipV=1;flipH=0;" vertex="1" parent="S2QrxNCUd-B4CDodrf9g-67">
          <mxGeometry x="23.000000000000004" width="17.37" height="5" as="geometry" />
        </mxCell>
        <mxCell id="S2QrxNCUd-B4CDodrf9g-65" value="" style="rounded=0;whiteSpace=wrap;html=1;fillColor=#cce5ff;strokeColor=#36393d;flipV=1;flipH=0;" vertex="1" parent="S2QrxNCUd-B4CDodrf9g-67">
          <mxGeometry x="3" y="2.3700000000000045" width="40" height="5" as="geometry" />
        </mxCell>
        <mxCell id="S2QrxNCUd-B4CDodrf9g-66" value="" style="rounded=0;whiteSpace=wrap;html=1;fillColor=#eeeeee;strokeColor=#36393d;flipV=1;flipH=0;" vertex="1" parent="S2QrxNCUd-B4CDodrf9g-67">
          <mxGeometry y="1.3700000000000045" width="10" height="1" as="geometry" />
        </mxCell>
        <mxCell id="S2QrxNCUd-B4CDodrf9g-68" value="&lt;font style=&quot;font-size: 7px;&quot;&gt;ESP32&lt;/font&gt;&lt;div&gt;&lt;font style=&quot;font-size: 7px;&quot;&gt;STEPMOTOR&lt;/font&gt;&lt;/div&gt;" style="text;html=1;align=center;verticalAlign=middle;whiteSpace=wrap;rounded=0;" vertex="1" parent="1">
          <mxGeometry x="548.5" y="363.63" width="60" height="30" as="geometry" />
        </mxCell>
      </root>
    </mxGraphModel>
  </diagram>
</mxfile>
